<svg xmlns="http://www.w3.org/2000/svg" width="53" height="54" fill="none"><g filter="url(#a)"><rect width="32.906" height="31.966" x="18.461" y="2.854" fill="#fff" fill-opacity=".3" rx="7"/></g><foreignObject width="52.906" height="53.606" x="0" y="0"><div xmlns="http://www.w3.org/1999/xhtml" style="backdrop-filter:blur(2.82px);clip-path:url(#b);height:100%;width:100%"/></foreignObject><g data-figma-bg-blur-radius="5.641" filter="url(#c)"><path fill="#fff" fill-opacity=".2" d="M10 20.448c0-3.92 0-5.88.763-7.378a7 7 0 0 1 3.06-3.059c1.496-.763 3.457-.763 7.377-.763h10.506c3.92 0 5.88 0 7.378.763a7 7 0 0 1 3.059 3.06c.763 1.497.763 3.457.763 7.377v11.207c0 3.92 0 5.88-.763 7.378a7 7 0 0 1-3.06 3.059c-1.496.763-3.457.763-7.377.763H21.2c-3.92 0-5.88 0-7.378-.763a7 7 0 0 1-3.059-3.06C10 37.536 10 35.576 10 31.656z" shape-rendering="crispEdges"/></g><g fill="#fff" filter="url(#d)"><rect width="14.359" height="2.462" x="14.305" y="15.777" rx="1.231"/><rect width="12.103" height="2.462" x="14.305" y="26.444" rx="1.231"/><rect width="19.077" height="2.462" x="14.305" y="21.11" rx="1.231"/></g><defs><filter id="a" width="32.906" height="32.718" x="18.461" y="2.854" color-interpolation-filters="sRGB" filterUnits="userSpaceOnUse"><feFlood flood-opacity="0" result="BackgroundImageFix"/><feBlend in="SourceGraphic" in2="BackgroundImageFix" result="shape"/><feColorMatrix in="SourceAlpha" result="hardAlpha" values="0 0 0 0 0 0 0 0 0 0 0 0 0 0 0 0 0 0 127 0"/><feOffset dy=".752"/><feGaussianBlur stdDeviation=".376"/><feComposite in2="hardAlpha" k2="-1" k3="1" operator="arithmetic"/><feColorMatrix values="0 0 0 0 1 0 0 0 0 1 0 0 0 0 1 0 0 0 0.25 0"/><feBlend in2="shape" result="effect1_innerShadow_8301_712"/></filter><filter id="c" width="52.906" height="53.606" x="0" y="0" color-interpolation-filters="sRGB" filterUnits="userSpaceOnUse"><feFlood flood-opacity="0" result="BackgroundImageFix"/><feColorMatrix in="SourceAlpha" result="hardAlpha" values="0 0 0 0 0 0 0 0 0 0 0 0 0 0 0 0 0 0 127 0"/><feOffset dy=".752"/><feGaussianBlur stdDeviation="5"/><feComposite in2="hardAlpha" operator="out"/><feColorMatrix values="0 0 0 0 0.18223 0 0 0 0 0.35223 0 0 0 0 0.947228 0 0 0 0.2 0"/><feBlend in2="BackgroundImageFix" result="effect1_dropShadow_8301_712"/><feBlend in="SourceGraphic" in2="effect1_dropShadow_8301_712" result="shape"/><feColorMatrix in="SourceAlpha" result="hardAlpha" values="0 0 0 0 0 0 0 0 0 0 0 0 0 0 0 0 0 0 127 0"/><feOffset dy=".752"/><feGaussianBlur stdDeviation=".376"/><feComposite in2="hardAlpha" k2="-1" k3="1" operator="arithmetic"/><feColorMatrix values="0 0 0 0 1 0 0 0 0 1 0 0 0 0 1 0 0 0 0.25 0"/><feBlend in2="shape" result="effect2_innerShadow_8301_712"/></filter><filter id="d" width="23.841" height="17.892" x="11.923" y="14.368" color-interpolation-filters="sRGB" filterUnits="userSpaceOnUse"><feFlood flood-opacity="0" result="BackgroundImageFix"/><feColorMatrix in="SourceAlpha" result="hardAlpha" values="0 0 0 0 0 0 0 0 0 0 0 0 0 0 0 0 0 0 127 0"/><feOffset dy=".972"/><feGaussianBlur stdDeviation="1.191"/><feComposite in2="hardAlpha" operator="out"/><feColorMatrix values="0 0 0 0 0 0 0 0 0 0 0 0 0 0 0 0 0 0 0.13 0"/><feBlend in2="BackgroundImageFix" result="effect1_dropShadow_8301_712"/><feBlend in="SourceGraphic" in2="effect1_dropShadow_8301_712" result="shape"/></filter><clipPath id="b"><path d="M10 20.448c0-3.92 0-5.88.763-7.378a7 7 0 0 1 3.06-3.059c1.496-.763 3.457-.763 7.377-.763h10.506c3.92 0 5.88 0 7.378.763a7 7 0 0 1 3.059 3.06c.763 1.497.763 3.457.763 7.377v11.207c0 3.92 0 5.88-.763 7.378a7 7 0 0 1-3.06 3.059c-1.496.763-3.457.763-7.377.763H21.2c-3.92 0-5.88 0-7.378-.763a7 7 0 0 1-3.059-3.06C10 37.536 10 35.576 10 31.656z"/></clipPath></defs></svg>