<svg width="70" height="80" viewBox="0 0 70 80" fill="none" xmlns="http://www.w3.org/2000/svg">
<g clip-path="url(#clip0_8301_273)">
<path d="M0 0H70V75C70 77.7614 67.7614 80 65 80H5C2.23858 80 0 77.7614 0 75V0Z" fill="#4850EC"/>
<path d="M25.3643 22.4363C25.394 22.44 25.4237 22.4425 25.4509 22.4301C25.5067 22.3632 25.5822 22.3137 25.555 22.2109C25.7803 21.9521 25.9438 21.52 25.8076 21.1435C25.7271 20.9677 25.5636 20.9826 25.4002 20.9974C25.2838 21.0073 25.1674 21.0172 25.0844 20.9578L25.0807 20.8464L22.1126 19.6626C21.9752 19.0286 21.6681 18.4863 21.4044 17.9278C21.3189 16.6376 20.2033 15.7721 20.2194 14.4979C20.3816 14.2564 20.5723 14.2874 20.7654 14.3184C20.8744 14.3357 20.9846 14.353 21.0899 14.3208C21.2335 14.2069 21.3127 14.1227 21.2471 13.906C21.3103 13.8639 21.3226 13.7351 21.4267 13.7215C21.4502 13.4268 21.3883 13.0974 21.7486 13.0157C21.631 12.778 21.4465 12.5724 21.4143 12.2753C21.6322 11.8382 21.3326 11.2686 21.3536 10.8154C20.9078 10.647 20.4138 10.299 19.9135 10.3139C19.6956 10.3201 19.4777 10.3968 19.261 10.5888C18.8697 11.0296 18.6208 11.5051 18.6344 11.9706C18.6381 12.8795 18.7768 12.908 18.8598 13.5209C18.7273 13.6472 18.7273 13.984 18.4648 13.854C18.128 14.2862 17.7367 14.774 17.3665 15.2223C16.2137 16.2748 14.5916 17.2641 14.3984 18.9902C14.5012 20.2941 14.5297 21.5596 14.4863 22.882C14.5321 22.8882 14.5829 22.8833 14.6324 22.8783C14.7241 22.8697 14.8132 22.8622 14.8739 22.9142C14.8553 22.939 14.8479 22.9588 14.8343 22.9799H14.8256C14.8281 23.0529 14.8305 23.1173 14.8194 23.1904L14.9185 23.1879C15.1079 23.5953 14.9408 24.1797 15.0534 24.618C15.1599 24.7642 15.1215 25.0799 15.3469 25.0898C15.3444 25.0329 15.332 24.9648 15.3828 24.9227L15.5834 25.2904C15.7085 25.3548 15.7171 25.1889 15.7753 25.1307C15.8657 25.1765 15.8063 25.3102 15.8261 25.3957C15.8744 25.4551 15.9239 25.5306 16.0242 25.4984L16.0799 24.3778C16.2137 24.706 16.2099 25.1171 16.2595 25.491L16.361 25.4885C16.5319 25.33 16.4328 25.0576 16.4564 24.8385C16.3895 24.1797 16.4786 23.6126 16.1939 23.0467C16.2818 22.9724 16.314 22.8882 16.2966 22.7632C16.361 22.7471 16.3722 22.6455 16.4489 22.6629C16.6347 21.4865 16.5542 20.1406 16.5889 18.9803L16.9863 18.651C17.359 20.3189 17.0619 22.0524 16.7721 23.7129C16.8761 24.0101 16.9789 24.3766 16.8613 24.727L16.8489 25.3647L16.8996 25.3622L16.9096 25.075C16.9294 25.7015 16.7176 26.4804 17.1721 26.7874C17.1634 28.4083 17.1547 30.0193 16.9281 31.5299C15.9635 33.869 14.4789 36.2179 14.6745 38.8529L15.8211 38.8454L15.9425 38.578C16.9529 38.7291 18.102 39.0002 18.9601 38.2969C18.8449 37.7372 18.045 37.9948 17.6513 37.731C17.4618 37.6245 17.2241 37.5181 17.0941 37.3336L16.9083 37.3162C17.1745 36.1213 17.7788 35.0688 18.3075 34.0002C19.8256 32.0846 19.7377 29.5066 20.0114 27.0784C20.0646 26.9757 20.1624 26.9521 20.2615 26.9608C20.3321 26.9509 20.4187 26.9509 20.5116 26.9497C20.8187 26.9472 21.179 26.9422 21.0948 26.6166C22.5535 26.7206 23.7546 27.466 25.1996 27.6604C25.1711 27.8127 25.0758 27.9365 25.0349 28.0827C25.0126 28.464 24.999 28.8318 24.9817 29.1971L24.9767 29.4781C24.9309 31.3442 24.9396 32.4202 25.3011 34.2082L26.3227 34.176L26.4279 33.9135C27.395 33.843 28.5292 33.9593 29.4282 33.3266C29.2561 32.7892 28.4809 33.1334 28.0525 32.9006C27.8147 32.7818 27.4742 32.6654 27.3764 32.3855C27.2798 30.4737 27.4061 28.4851 27.7504 26.6129C26.3066 24.68 24.2721 24.2701 22.4569 23.3204C22.5262 23.1024 22.4618 23.1582 22.5782 22.9638C22.099 22.9625 21.8068 22.575 21.3932 22.7099C21.3053 22.2381 21.2521 21.6661 21.3586 21.1708C21.4923 21.2785 21.6471 21.3256 21.7437 21.4766C22.6798 21.8159 23.7149 21.91 24.6226 22.3545L24.9643 22.123" fill="white"/>
<path d="M10.5469 58.7467H21.6799V38.8271H10.5469V58.7467ZM19.2282 54.2345C19.0375 54.6221 18.6685 54.9453 18.1212 55.2066C17.5739 55.4678 16.9374 55.5991 16.2118 55.5991C15.4156 55.5991 14.7346 55.4492 14.1724 55.1471C13.609 54.845 13.24 54.4611 13.0655 53.9943C12.8909 53.5275 12.8042 52.865 12.8042 52.0082V51.259H15.5692V52.6521C15.5692 53.0817 15.6076 53.3579 15.6856 53.4804C15.7636 53.603 15.9023 53.6637 16.1004 53.6637C16.2985 53.6637 16.4459 53.5857 16.5412 53.4309C16.6378 53.2749 16.6873 53.0446 16.6873 52.7375C16.6873 52.0639 16.5957 51.6231 16.4112 51.4151C16.223 51.2083 15.7586 50.8616 15.0182 50.3749C14.2789 49.8846 13.7874 49.5292 13.5471 49.3076C13.3057 49.0859 13.1076 48.7801 12.9491 48.3888C12.7906 47.9975 12.7126 47.4973 12.7126 46.8893C12.7126 46.0126 12.8252 45.3712 13.0481 44.9663C13.271 44.5602 13.6338 44.2444 14.1341 44.0153C14.6331 43.7863 15.2373 43.6723 15.9444 43.6723C16.717 43.6723 17.3758 43.7974 17.9206 44.0475C18.4642 44.2976 18.8258 44.6122 19.0016 44.9911C19.1787 45.3712 19.2666 46.0163 19.2666 46.9252V47.3772H16.5016V46.5277C16.5016 46.1327 16.4669 45.8801 16.3951 45.7712C16.3245 45.6622 16.2069 45.6089 16.041 45.6089C15.8626 45.6089 15.7264 45.682 15.6348 45.8281C15.5432 45.9742 15.4974 46.1959 15.4974 46.493C15.4974 46.8744 15.5494 47.1617 15.6521 47.3561C15.7512 47.5493 16.0323 47.7833 16.4941 48.0557C17.8191 48.8432 18.6536 49.4884 18.9979 49.9923C19.3421 50.4975 19.5142 51.3098 19.5142 52.4317C19.5155 53.2464 19.4201 53.8482 19.2282 54.2345Z" fill="white"/>
<path d="M23.1094 58.7468H34.2424V34.3262H23.1094V58.7468ZM32.0619 46.0561H30.2219V55.5905H27.1213V46.0561H25.2875V43.67H32.0619V46.0561Z" fill="white"/>
<path d="M35.6719 58.7453H46.8049V29.6826H35.6719V58.7453ZM44.0115 55.5965H38.8913V43.6673H43.8047V46.0546H41.7343V48.3169H43.6722V50.5866H41.7343V53.2092H44.0102V55.5965H44.0115Z" fill="white"/>
<path d="M53.5547 45.7061V48.7435C53.6426 48.7485 53.7194 48.7509 53.7837 48.7509C54.0685 48.7509 54.2667 48.6804 54.3769 48.5404C54.4871 48.4005 54.5415 48.1083 54.5415 47.6675V46.688C54.5415 46.2794 54.4784 46.0144 54.3496 45.8906C54.2233 45.768 53.9583 45.7061 53.5547 45.7061Z" fill="white"/>
<path d="M48.2266 58.7454H59.3596V25.1816H48.2266V58.7454ZM57.1357 48.042C57.1357 48.8035 57.0577 49.3583 56.9004 49.7074C56.742 50.0566 56.4534 50.3241 56.0349 50.5111C55.6151 50.698 55.0654 50.7909 54.3868 50.7909H53.5535V55.5965H50.7191V43.6636H53.5758C54.4202 43.6636 55.0703 43.7292 55.5248 43.8629C55.9792 43.9954 56.3209 44.1861 56.55 44.4375C56.7791 44.6888 56.9339 44.9922 57.0144 45.3476C57.0961 45.7042 57.1357 46.2552 57.1357 47.0019V48.042Z" fill="white"/>
<path d="M12.7237 61.2031H10.5469V69.5117H12.7237V61.2031Z" fill="white"/>
<path d="M17.9839 61.2031V62.8661H16.6912V69.513H14.5144V62.8661H13.2266V61.2031H17.9839Z" fill="white"/>
<path d="M24.1087 61.2051L25.3543 69.5137H23.1292L23.0116 68.0204H22.234L22.1027 69.5137H19.8516L20.9623 61.2051H24.1087ZM22.9546 66.5469C22.8444 65.6058 22.7342 64.4419 22.6228 63.0575C22.4011 64.6486 22.2612 65.8114 22.2043 66.5469H22.9546Z" fill="white"/>
<path d="M30.8078 64.8208H28.631V63.377C28.631 62.9572 28.6074 62.6947 28.5616 62.5907C28.5158 62.4867 28.413 62.4347 28.2533 62.4347C28.075 62.4347 27.9598 62.4978 27.9115 62.6241C27.8632 62.7517 27.8397 63.0241 27.8397 63.4451V67.3047C27.8397 67.7084 27.8632 67.9721 27.9115 68.0959C27.9598 68.2198 28.0688 68.2804 28.2372 68.2804C28.3994 68.2804 28.5059 68.2198 28.5554 68.0947C28.605 67.9721 28.631 67.6811 28.631 67.2254V66.1804H30.8078V66.5036C30.8078 67.3641 30.7471 67.9746 30.6245 68.3337C30.5019 68.694 30.2308 69.0085 29.8122 69.2797C29.3937 69.5509 28.8774 69.6858 28.2644 69.6858C27.6267 69.6858 27.1017 69.5707 26.6869 69.3428C26.2733 69.1138 25.9997 68.7955 25.8647 68.3906C25.731 67.9857 25.6641 67.3753 25.6641 66.5605V64.1336C25.6641 63.5355 25.6852 63.086 25.726 62.7864C25.7681 62.4867 25.8907 62.1982 26.0963 61.9208C26.3006 61.6447 26.5866 61.4255 26.9494 61.267C27.3135 61.1085 27.7308 61.0293 28.2038 61.0293C28.8452 61.0293 29.3739 61.1519 29.7912 61.3983C30.2085 61.6447 30.4821 61.9518 30.6134 62.3183C30.7446 62.6861 30.8103 63.2569 30.8103 64.0333V64.8208H30.8078Z" fill="white"/>
<path d="M35.3508 61.2051L36.5965 69.5137H34.3713L34.255 68.0204H33.4762L33.3448 69.5137H31.0938L32.2044 61.2051H35.3508ZM34.1981 66.5469C34.0879 65.6058 33.9763 64.4419 33.8661 63.0575C33.6433 64.6486 33.5047 65.8114 33.449 66.5469H34.1981Z" fill="white"/>
<path d="M36.97 61.2031H38.5994C39.6507 61.2031 40.3616 61.2514 40.733 61.3467C41.1033 61.4433 41.3855 61.6006 41.5774 61.8185C41.7706 62.0377 41.8908 62.2816 41.9391 62.5503C41.9874 62.819 42.0109 63.3465 42.0109 64.134V67.0439C42.0109 67.7893 41.9762 68.2883 41.9044 68.5397C41.8338 68.7911 41.7112 68.9879 41.5354 69.1303C41.3596 69.2715 41.1417 69.3718 40.8841 69.4275C40.6241 69.4845 40.2353 69.513 39.714 69.513H36.9688V61.2031H36.97ZM39.1468 62.6246V68.0902C39.4601 68.0902 39.6532 68.0271 39.7262 67.902C39.7981 67.7769 39.8353 67.4377 39.8353 66.8829V63.6548C39.8353 63.2784 39.8229 63.0382 39.7994 62.9317C39.7759 62.8252 39.7201 62.7484 39.6334 62.6977C39.5467 62.6494 39.3846 62.6246 39.1468 62.6246Z" fill="white"/>
<path d="M42.8203 61.2031H46.4495V62.8661H44.9958V64.4424H46.3567V66.0223H44.9958V67.85H46.5944V69.513H42.8203V61.2031Z" fill="white"/>
<path d="M53.9363 61.2034V69.5121H52.0331L52.0306 63.9029L51.2728 69.5121H49.923L49.1245 64.0316L49.122 69.5121H47.2188V61.2034H50.0358C50.1188 61.7024 50.2042 62.2919 50.2946 62.9692L50.6029 65.0829L51.1032 61.2021H53.9363V61.2034Z" fill="white"/>
<path d="M59.4475 61.2031L57.86 66.504V69.5117H55.8429V66.5053L54.3125 61.2043H56.3122C56.6255 62.8264 56.8013 63.9173 56.841 64.4783C56.9623 63.5917 57.1641 62.5008 57.4465 61.2043H59.4475V61.2031Z" fill="white"/>
</g>
<defs>
<clipPath id="clip0_8301_273">
<rect width="70" height="80" fill="white"/>
</clipPath>
</defs>
</svg>
