<svg xmlns="http://www.w3.org/2000/svg" width="70" height="80" fill="none"><g clip-path="url(#a)"><path fill="#4850ec" d="M0 0h70v75a5 5 0 0 1-5 5H5a5 5 0 0 1-5-5z"/><path fill="#fff" d="M25.364 22.436c.03.004.06.006.087-.006.056-.067.131-.116.104-.22.225-.258.389-.69.253-1.067-.08-.175-.244-.16-.408-.146-.116.01-.233.02-.316-.04l-.003-.11-2.968-1.184c-.138-.634-.445-1.177-.709-1.735-.085-1.29-1.2-2.156-1.185-3.43.163-.242.353-.21.546-.18.11.018.22.035.325.003.143-.114.223-.198.157-.415.063-.042.076-.17.18-.184.023-.295-.039-.625.322-.706-.118-.238-.302-.444-.335-.74.218-.438-.081-1.007-.06-1.46-.446-.169-.94-.517-1.44-.502a1 1 0 0 0-.653.275c-.391.44-.64.916-.627 1.382.004.909.143.937.226 1.55-.133.126-.133.463-.395.333-.337.432-.728.92-1.099 1.368-1.152 1.053-2.774 2.042-2.968 3.768.103 1.304.132 2.57.088 3.892a.6.6 0 0 0 .146-.004c.092-.008.181-.016.242.036-.019.025-.026.045-.04.066h-.008c.002.073.005.137-.007.21l.1-.002c.189.407.022.992.134 1.43.107.146.068.462.294.472-.003-.057-.015-.125.036-.167l.2.367c.126.065.134-.101.192-.16.09.047.031.18.051.266.048.06.098.135.198.102l.056-1.12c.134.328.13.74.18 1.113l.101-.003c.17-.158.072-.43.095-.65-.066-.658.023-1.225-.262-1.791.088-.075.12-.159.103-.284.064-.016.075-.118.152-.1.186-1.177.105-2.522.14-3.683l.397-.329c.373 1.668.076 3.401-.214 5.062.104.297.207.664.09 1.014l-.013.638.05-.003.01-.287c.02.627-.191 1.405.263 1.712-.009 1.621-.017 3.232-.244 4.743-.965 2.339-2.45 4.688-2.254 7.323l1.147-.008.122-.267c1.01.151 2.159.422 3.017-.281-.115-.56-.915-.302-1.309-.566-.19-.107-.427-.213-.557-.397l-.186-.018c.266-1.195.87-2.247 1.4-3.316 1.518-1.915 1.43-4.493 1.703-6.922.054-.102.151-.126.25-.117.071-.01.158-.01.25-.011.308-.003.668-.008.584-.333 1.459.104 2.66.849 4.105 1.043-.029.153-.124.276-.165.423-.022.381-.036.749-.053 1.114l-.005.281c-.046 1.866-.037 2.942.324 4.73l1.022-.032.105-.263c.967-.07 2.101.046 3-.586-.172-.538-.947-.194-1.376-.426-.237-.12-.578-.236-.676-.516-.096-1.911.03-3.9.374-5.772-1.443-1.933-3.478-2.343-5.293-3.293.07-.218.005-.162.121-.356-.479-.002-.771-.389-1.185-.254-.088-.472-.14-1.044-.034-1.54.133.108.288.156.385.307.936.339 1.97.433 2.879.878l.341-.232"/><path fill="#fff" d="M10.547 58.747H21.68v-19.92H10.547zm8.681-4.513q-.286.581-1.107.973-.82.391-1.91.392-1.194 0-2.039-.452-.845-.453-1.107-1.153-.26-.7-.26-1.986v-.749h2.764v1.393q0 .645.117.828.117.184.414.184a.48.48 0 0 0 .441-.233q.146-.233.146-.694 0-1.01-.276-1.322-.282-.31-1.393-1.04-1.11-.735-1.47-1.067-.362-.333-.599-.92-.236-.585-.236-1.499 0-1.315.335-1.923t1.086-.95q.75-.344 1.81-.344 1.16 0 1.977.376.816.375 1.08.943.267.57.266 1.934v.452h-2.765v-.85q0-.592-.107-.756-.105-.163-.354-.162a.45.45 0 0 0-.406.22q-.138.218-.138.664 0 .572.155.863.15.29.842.7 1.988 1.18 2.504 1.936.516.758.516 2.44.002 1.222-.286 1.802M23.11 58.747h11.132v-24.42H23.11zm8.952-12.69h-1.84v9.533h-3.1v-9.534h-1.834V43.67h6.774zM35.672 58.745h11.133V29.683H35.672zm8.34-3.148h-5.12v-11.93h4.913v2.388h-2.07v2.262h1.937v2.27h-1.938v2.622h2.276v2.387zM53.555 45.706v3.037q.132.008.229.008.428 0 .593-.21.165-.211.164-.873v-.98q0-.613-.191-.797-.19-.185-.795-.185"/><path fill="#fff" d="M48.227 58.745H59.36V25.182H48.227zm8.909-10.703q0 1.142-.236 1.665-.238.524-.865.804-.63.28-1.648.28h-.834v4.806H50.72V43.664h2.857q1.266-.001 1.949.199.681.197 1.025.575.344.376.464.91.122.534.122 1.654zM12.724 61.203h-2.177v8.309h2.177zM17.984 61.203v1.663H16.69v6.647h-2.177v-6.647h-1.287v-1.663zM24.109 61.205l1.245 8.309H23.13l-.117-1.494h-.778l-.131 1.494h-2.251l1.11-8.309zm-1.154 5.342q-.164-1.412-.332-3.49-.333 2.387-.419 3.49zM30.808 64.82H28.63v-1.443q0-.63-.07-.786-.068-.156-.308-.156-.268 0-.341.19t-.072.82v3.86q0 .605.072.79.073.186.325.185.244.001.318-.185.075-.185.076-.87V66.18h2.177v.324q0 1.29-.183 1.83-.184.539-.813.946-.628.406-1.548.406-.955 0-1.577-.343-.62-.345-.822-.952-.2-.608-.2-1.83v-2.427q0-.898.061-1.348.063-.45.37-.865.308-.415.853-.654a3.1 3.1 0 0 1 1.255-.238q.962 0 1.587.37.626.37.822.92.197.55.197 1.714v.788zM35.35 61.205l1.246 8.309h-2.225l-.116-1.494h-.779l-.131 1.494h-2.251l1.11-8.309zm-1.152 5.342a97 97 0 0 1-.332-3.49q-.334 2.387-.417 3.49zM36.97 61.203h1.63q1.576 0 2.133.144.556.145.844.471.29.33.362.732.072.404.072 1.584v2.91q0 1.118-.107 1.496-.105.377-.369.59a1.55 1.55 0 0 1-.65.297q-.39.086-1.171.086h-2.745v-8.31zm2.177 1.422v5.465q.47 0 .58-.188.107-.187.108-1.02v-3.227q0-.565-.036-.723a.34.34 0 0 0-.166-.234q-.129-.073-.486-.073M42.82 61.203h3.63v1.663h-1.454v1.576h1.36v1.58h-1.36v1.828h1.598v1.663H42.82zM53.936 61.203v8.31h-1.903l-.002-5.61-.758 5.61h-1.35l-.799-5.481-.002 5.48h-1.903v-8.309h2.817q.123.75.259 1.766l.308 2.114.5-3.88zM59.448 61.203l-1.588 5.301v3.008h-2.017v-3.007l-1.53-5.3h2q.469 2.432.528 3.273.182-1.329.605-3.274h2.002"/></g><defs><clipPath id="a"><path fill="#fff" d="M0 0h70v80H0z"/></clipPath></defs></svg>