<svg width="1800" height="716" viewBox="0 0 1800 716" fill="none" xmlns="http://www.w3.org/2000/svg">
<mask id="mask0_6041_4106" style="mask-type:alpha" maskUnits="userSpaceOnUse" x="-18" y="-241" width="1874" height="1197">
<rect x="-18" y="-241" width="1874" height="1197" fill="url(#paint0_linear_6041_4106)"/>
</mask>
<g mask="url(#mask0_6041_4106)">
<g clip-path="url(#clip0_6041_4106)">
<rect width="1290" height="826.923" transform="translate(510 -55.4619)" fill="#E4DFFF"/>
<g clip-path="url(#clip1_6041_4106)">
<path d="M1800 -55.4619H395.969V771.461H1800V-55.4619Z" fill="#E4DFFF"/>
<path d="M571.428 78.4582L483.695 110.363V-23.0077L571.428 -54.9121V78.4582Z" fill="black" fill-opacity="0.5"/>
<path d="M659.162 78.4582L571.43 110.363V-23.0077L659.162 -54.9121V78.4582Z" fill="black" fill-opacity="0.5"/>
<path d="M746.897 78.4582L659.164 110.363V-23.0077L746.897 -54.9121V78.4582Z" fill="black" fill-opacity="0.5"/>
<path d="M834.631 78.4582L746.898 110.363V-23.0077L834.631 -54.9121V78.4582Z" fill="black" fill-opacity="0.5"/>
<path d="M922.365 78.4582L834.633 110.363V-23.0077L922.365 -54.9121V78.4582Z" fill="black" fill-opacity="0.5"/>
<path d="M1010.09 78.4582L922.359 110.363V-23.0077L1010.09 -54.9121V78.4582Z" fill="black" fill-opacity="0.5"/>
<path d="M1097.83 78.4582L1010.1 110.363V-23.0077L1097.83 -54.9121V78.4582Z" fill="black" fill-opacity="0.5"/>
<path d="M1185.87 78.4582L1098.14 110.363V-23.0077L1185.87 -54.9121V78.4582Z" fill="black" fill-opacity="0.5"/>
<path d="M1273.61 78.4582L1185.88 110.363V-23.0077L1273.61 -54.9121V78.4582Z" fill="black" fill-opacity="0.5"/>
<path d="M1361.34 78.4582L1273.61 110.363V-23.0077L1361.34 -54.9121V78.4582Z" fill="black" fill-opacity="0.5"/>
<path d="M1449.07 78.4582L1361.34 110.363V-23.0077L1449.07 -54.9121V78.4582Z" fill="black" fill-opacity="0.5"/>
<path d="M1536.8 78.4582L1449.07 110.363V-23.0077L1536.8 -54.9121V78.4582Z" fill="black" fill-opacity="0.5"/>
<path d="M1624.53 78.4582L1536.8 110.363V-23.0077L1624.53 -54.9121V78.4582Z" fill="black" fill-opacity="0.5"/>
<path d="M1712.27 78.4582L1624.54 110.363V-23.0077L1712.27 -54.9121V78.4582Z" fill="black" fill-opacity="0.5"/>
<path d="M1800 78.4582L1712.27 110.363V-23.0077L1800 -54.9121V78.4582Z" fill="black" fill-opacity="0.5"/>
<path d="M571.428 243.734L483.695 275.638V142.268L571.428 110.363V243.734Z" fill="black" fill-opacity="0.5"/>
<path d="M659.162 243.734L571.43 275.638V142.268L659.162 110.363V243.734Z" fill="black" fill-opacity="0.5"/>
<path d="M746.897 243.734L659.164 275.638V142.268L746.897 110.363V243.734Z" fill="black" fill-opacity="0.5"/>
<path d="M834.631 243.734L746.898 275.638V142.268L834.631 110.363V243.734Z" fill="black" fill-opacity="0.5"/>
<path d="M922.365 243.734L834.633 275.638V142.268L922.365 110.363V243.734Z" fill="black" fill-opacity="0.5"/>
<path d="M1010.09 243.734L922.359 275.638V142.268L1010.09 110.363V243.734Z" fill="black" fill-opacity="0.5"/>
<path d="M1097.83 243.734L1010.1 275.638V142.268L1097.83 110.363V243.734Z" fill="black" fill-opacity="0.5"/>
<path d="M1185.87 243.734L1098.14 275.638V142.268L1185.87 110.363V243.734Z" fill="black" fill-opacity="0.5"/>
<path d="M1273.61 243.734L1185.88 275.638V142.268L1273.61 110.363V243.734Z" fill="black" fill-opacity="0.5"/>
<path d="M1361.34 243.734L1273.61 275.638V142.268L1361.34 110.363V243.734Z" fill="black" fill-opacity="0.5"/>
<path d="M1449.07 243.734L1361.34 275.638V142.268L1449.07 110.363V243.734Z" fill="black" fill-opacity="0.5"/>
<path d="M1536.8 243.734L1449.07 275.638V142.268L1536.8 110.363V243.734Z" fill="black" fill-opacity="0.5"/>
<path d="M1624.53 243.734L1536.8 275.638V142.268L1624.53 110.363V243.734Z" fill="black" fill-opacity="0.5"/>
<path d="M1712.27 243.734L1624.54 275.638V142.268L1712.27 110.363V243.734Z" fill="black" fill-opacity="0.5"/>
<path d="M1800 243.734L1712.27 275.638V142.268L1800 110.363V243.734Z" fill="black" fill-opacity="0.5"/>
<path d="M571.428 409.007L483.695 440.911V307.541L571.428 275.637V409.007Z" fill="black" fill-opacity="0.5"/>
<path d="M659.162 409.007L571.43 440.911V307.541L659.162 275.637V409.007Z" fill="black" fill-opacity="0.5"/>
<path d="M746.897 409.007L659.164 440.911V307.541L746.897 275.637V409.007Z" fill="black" fill-opacity="0.5"/>
<path d="M834.631 409.007L746.898 440.911V307.541L834.631 275.637V409.007Z" fill="black" fill-opacity="0.5"/>
<path d="M922.365 409.007L834.633 440.911V307.541L922.365 275.637V409.007Z" fill="black" fill-opacity="0.5"/>
<path d="M1010.09 409.007L922.359 440.911V307.541L1010.09 275.637V409.007Z" fill="black" fill-opacity="0.5"/>
<path d="M1097.83 409.007L1010.1 440.911V307.541L1097.83 275.637V409.007Z" fill="black" fill-opacity="0.5"/>
<path d="M1185.87 409.007L1098.14 440.911V307.541L1185.87 275.637V409.007Z" fill="black" fill-opacity="0.5"/>
<path d="M1273.61 409.007L1185.88 440.911V307.541L1273.61 275.637V409.007Z" fill="black" fill-opacity="0.5"/>
<path d="M1361.34 409.007L1273.61 440.911V307.541L1361.34 275.637V409.007Z" fill="black" fill-opacity="0.5"/>
<path d="M1449.07 409.007L1361.34 440.911V307.541L1449.07 275.637V409.007Z" fill="black" fill-opacity="0.5"/>
<path d="M1536.8 409.007L1449.07 440.911V307.541L1536.8 275.637V409.007Z" fill="black" fill-opacity="0.5"/>
<path d="M1624.53 409.007L1536.8 440.911V307.541L1624.53 275.637V409.007Z" fill="black" fill-opacity="0.5"/>
<path d="M1712.27 409.007L1624.54 440.911V307.541L1712.27 275.637V409.007Z" fill="black" fill-opacity="0.5"/>
<path d="M1800 409.007L1712.27 440.911V307.541L1800 275.637V409.007Z" fill="black" fill-opacity="0.5"/>
<path d="M571.428 574.281L483.695 606.186V472.815L571.428 440.911V574.281Z" fill="black" fill-opacity="0.5"/>
<path d="M659.162 574.281L571.43 606.186V472.815L659.162 440.911V574.281Z" fill="black" fill-opacity="0.5"/>
<path d="M746.897 574.281L659.164 606.186V472.815L746.897 440.911V574.281Z" fill="black" fill-opacity="0.5"/>
<path d="M834.631 574.281L746.898 606.186V472.815L834.631 440.911V574.281Z" fill="black" fill-opacity="0.5"/>
<path d="M922.365 574.281L834.633 606.186V472.815L922.365 440.911V574.281Z" fill="black" fill-opacity="0.5"/>
<path d="M1010.09 574.281L922.359 606.186V472.815L1010.09 440.911V574.281Z" fill="black" fill-opacity="0.5"/>
<path d="M1097.83 574.281L1010.1 606.186V472.815L1097.83 440.911V574.281Z" fill="black" fill-opacity="0.5"/>
<path d="M1185.87 574.281L1098.14 606.186V472.815L1185.87 440.911V574.281Z" fill="black" fill-opacity="0.5"/>
<path d="M1273.61 574.281L1185.88 606.186V472.815L1273.61 440.911V574.281Z" fill="black" fill-opacity="0.5"/>
<path d="M1361.34 574.281L1273.61 606.186V472.815L1361.34 440.911V574.281Z" fill="black" fill-opacity="0.5"/>
<path d="M1449.07 574.281L1361.34 606.186V472.815L1449.07 440.911V574.281Z" fill="black" fill-opacity="0.5"/>
<path d="M1536.8 574.281L1449.07 606.186V472.815L1536.8 440.911V574.281Z" fill="black" fill-opacity="0.5"/>
<path d="M1624.53 574.281L1536.8 606.186V472.815L1624.53 440.911V574.281Z" fill="black" fill-opacity="0.5"/>
<path d="M1712.27 574.281L1624.54 606.186V472.815L1712.27 440.911V574.281Z" fill="black" fill-opacity="0.5"/>
<path d="M1800 574.281L1712.27 606.186V472.815L1800 440.911V574.281Z" fill="black" fill-opacity="0.5"/>
<path d="M571.428 739.557L483.695 771.461V638.091L571.428 606.187V739.557Z" fill="black" fill-opacity="0.5"/>
<path d="M659.162 739.557L571.43 771.461V638.091L659.162 606.187V739.557Z" fill="black" fill-opacity="0.5"/>
<path d="M746.897 739.557L659.164 771.461V638.091L746.897 606.187V739.557Z" fill="black" fill-opacity="0.5"/>
<path d="M834.631 739.557L746.898 771.461V638.091L834.631 606.187V739.557Z" fill="black" fill-opacity="0.5"/>
<path d="M922.365 739.557L834.633 771.461V638.091L922.365 606.187V739.557Z" fill="black" fill-opacity="0.5"/>
<path d="M1010.09 739.557L922.359 771.461V638.091L1010.09 606.187V739.557Z" fill="black" fill-opacity="0.5"/>
<path d="M1097.83 739.557L1010.1 771.461V638.091L1097.83 606.187V739.557Z" fill="black" fill-opacity="0.5"/>
<path d="M1185.87 739.557L1098.14 771.461V638.091L1185.87 606.187V739.557Z" fill="black" fill-opacity="0.5"/>
<path d="M1273.61 739.557L1185.88 771.461V638.091L1273.61 606.187V739.557Z" fill="black" fill-opacity="0.5"/>
<path d="M1361.34 739.557L1273.61 771.461V638.091L1361.34 606.187V739.557Z" fill="black" fill-opacity="0.5"/>
<path d="M1449.07 739.557L1361.34 771.461V638.091L1449.07 606.187V739.557Z" fill="black" fill-opacity="0.5"/>
<path d="M1536.8 739.557L1449.07 771.461V638.091L1536.8 606.187V739.557Z" fill="black" fill-opacity="0.5"/>
<path d="M1624.53 739.557L1536.8 771.461V638.091L1624.53 606.187V739.557Z" fill="black" fill-opacity="0.5"/>
<path d="M1712.27 739.557L1624.54 771.461V638.091L1712.27 606.187V739.557Z" fill="black" fill-opacity="0.5"/>
<path d="M1800 739.557L1712.27 771.461V638.091L1800 606.187V739.557Z" fill="black" fill-opacity="0.5"/>
</g>
</g>
<g clip-path="url(#clip2_6041_4106)">
<rect width="1290" height="826.923" transform="translate(-16 -55.4619)" fill="#E4DFFF"/>
<g clip-path="url(#clip3_6041_4106)">
<path d="M1274 -55.4619H-130.031V771.461H1274V-55.4619Z" fill="#E4DFFF"/>
<path d="M45.4278 78.4582L-42.3047 110.363V-23.0077L45.4278 -54.9121V78.4582Z" fill="black" fill-opacity="0.5"/>
<path d="M133.162 78.4582L45.4297 110.363V-23.0077L133.162 -54.9121V78.4582Z" fill="black" fill-opacity="0.5"/>
<path d="M220.897 78.4582L133.164 110.363V-23.0077L220.897 -54.9121V78.4582Z" fill="black" fill-opacity="0.5"/>
<path d="M308.631 78.4582L220.898 110.363V-23.0077L308.631 -54.9121V78.4582Z" fill="black" fill-opacity="0.5"/>
<path d="M396.365 78.4582L308.633 110.363V-23.0077L396.365 -54.9121V78.4582Z" fill="black" fill-opacity="0.5"/>
<path d="M484.092 78.4582L396.359 110.363V-23.0077L484.092 -54.9121V78.4582Z" fill="black" fill-opacity="0.5"/>
<path d="M571.834 78.4582L484.102 110.363V-23.0077L571.834 -54.9121V78.4582Z" fill="black" fill-opacity="0.5"/>
<path d="M659.873 78.4582L572.141 110.363V-23.0077L659.873 -54.9121V78.4582Z" fill="black" fill-opacity="0.5"/>
<path d="M747.607 78.4582L659.875 110.363V-23.0077L747.607 -54.9121V78.4582Z" fill="black" fill-opacity="0.5"/>
<path d="M835.342 78.4582L747.609 110.363V-23.0077L835.342 -54.9121V78.4582Z" fill="black" fill-opacity="0.5"/>
<path d="M923.068 78.4582L835.336 110.363V-23.0077L923.068 -54.9121V78.4582Z" fill="black" fill-opacity="0.5"/>
<path d="M1010.8 78.4582L923.07 110.363V-23.0077L1010.8 -54.9121V78.4582Z" fill="black" fill-opacity="0.5"/>
<path d="M1098.53 78.4582L1010.8 110.363V-23.0077L1098.53 -54.9121V78.4582Z" fill="black" fill-opacity="0.5"/>
<path d="M1186.27 78.4582L1098.54 110.363V-23.0077L1186.27 -54.9121V78.4582Z" fill="black" fill-opacity="0.5"/>
<path d="M1274 78.4582L1186.27 110.363V-23.0077L1274 -54.9121V78.4582Z" fill="black" fill-opacity="0.5"/>
<path d="M45.4278 243.734L-42.3047 275.638V142.268L45.4278 110.363V243.734Z" fill="black" fill-opacity="0.5"/>
<path d="M133.162 243.734L45.4297 275.638V142.268L133.162 110.363V243.734Z" fill="black" fill-opacity="0.5"/>
<path d="M220.897 243.734L133.164 275.638V142.268L220.897 110.363V243.734Z" fill="black" fill-opacity="0.5"/>
<path d="M308.631 243.734L220.898 275.638V142.268L308.631 110.363V243.734Z" fill="black" fill-opacity="0.5"/>
<path d="M396.365 243.734L308.633 275.638V142.268L396.365 110.363V243.734Z" fill="black" fill-opacity="0.5"/>
<path d="M484.092 243.734L396.359 275.638V142.268L484.092 110.363V243.734Z" fill="black" fill-opacity="0.5"/>
<path d="M571.834 243.734L484.102 275.638V142.268L571.834 110.363V243.734Z" fill="black" fill-opacity="0.5"/>
<path d="M659.873 243.734L572.141 275.638V142.268L659.873 110.363V243.734Z" fill="black" fill-opacity="0.5"/>
<path d="M747.607 243.734L659.875 275.638V142.268L747.607 110.363V243.734Z" fill="black" fill-opacity="0.5"/>
<path d="M835.342 243.734L747.609 275.638V142.268L835.342 110.363V243.734Z" fill="black" fill-opacity="0.5"/>
<path d="M923.068 243.734L835.336 275.638V142.268L923.068 110.363V243.734Z" fill="black" fill-opacity="0.5"/>
<path d="M1010.8 243.734L923.07 275.638V142.268L1010.8 110.363V243.734Z" fill="black" fill-opacity="0.5"/>
<path d="M1098.53 243.734L1010.8 275.638V142.268L1098.53 110.363V243.734Z" fill="black" fill-opacity="0.5"/>
<path d="M1186.27 243.734L1098.54 275.638V142.268L1186.27 110.363V243.734Z" fill="black" fill-opacity="0.5"/>
<path d="M1274 243.734L1186.27 275.638V142.268L1274 110.363V243.734Z" fill="black" fill-opacity="0.5"/>
<path d="M45.4278 409.007L-42.3047 440.911V307.541L45.4278 275.637V409.007Z" fill="black" fill-opacity="0.5"/>
<path d="M133.162 409.007L45.4297 440.911V307.541L133.162 275.637V409.007Z" fill="black" fill-opacity="0.5"/>
<path d="M220.897 409.007L133.164 440.911V307.541L220.897 275.637V409.007Z" fill="black" fill-opacity="0.5"/>
<path d="M308.631 409.007L220.898 440.911V307.541L308.631 275.637V409.007Z" fill="black" fill-opacity="0.5"/>
<path d="M396.365 409.007L308.633 440.911V307.541L396.365 275.637V409.007Z" fill="black" fill-opacity="0.5"/>
<path d="M484.092 409.007L396.359 440.911V307.541L484.092 275.637V409.007Z" fill="black" fill-opacity="0.5"/>
<path d="M571.834 409.007L484.102 440.911V307.541L571.834 275.637V409.007Z" fill="black" fill-opacity="0.5"/>
<path d="M659.873 409.007L572.141 440.911V307.541L659.873 275.637V409.007Z" fill="black" fill-opacity="0.5"/>
<path d="M747.607 409.007L659.875 440.911V307.541L747.607 275.637V409.007Z" fill="black" fill-opacity="0.5"/>
<path d="M835.342 409.007L747.609 440.911V307.541L835.342 275.637V409.007Z" fill="black" fill-opacity="0.5"/>
<path d="M923.068 409.007L835.336 440.911V307.541L923.068 275.637V409.007Z" fill="black" fill-opacity="0.5"/>
<path d="M1010.8 409.007L923.07 440.911V307.541L1010.8 275.637V409.007Z" fill="black" fill-opacity="0.5"/>
<path d="M1098.53 409.007L1010.8 440.911V307.541L1098.53 275.637V409.007Z" fill="black" fill-opacity="0.5"/>
<path d="M1186.27 409.007L1098.54 440.911V307.541L1186.27 275.637V409.007Z" fill="black" fill-opacity="0.5"/>
<path d="M1274 409.007L1186.27 440.911V307.541L1274 275.637V409.007Z" fill="black" fill-opacity="0.5"/>
<path d="M45.4278 574.281L-42.3047 606.186V472.815L45.4278 440.911V574.281Z" fill="black" fill-opacity="0.5"/>
<path d="M133.162 574.281L45.4297 606.186V472.815L133.162 440.911V574.281Z" fill="black" fill-opacity="0.5"/>
<path d="M220.897 574.281L133.164 606.186V472.815L220.897 440.911V574.281Z" fill="black" fill-opacity="0.5"/>
<path d="M308.631 574.281L220.898 606.186V472.815L308.631 440.911V574.281Z" fill="black" fill-opacity="0.5"/>
<path d="M396.365 574.281L308.633 606.186V472.815L396.365 440.911V574.281Z" fill="black" fill-opacity="0.5"/>
<path d="M484.092 574.281L396.359 606.186V472.815L484.092 440.911V574.281Z" fill="black" fill-opacity="0.5"/>
<path d="M571.834 574.281L484.102 606.186V472.815L571.834 440.911V574.281Z" fill="black" fill-opacity="0.5"/>
<path d="M659.873 574.281L572.141 606.186V472.815L659.873 440.911V574.281Z" fill="black" fill-opacity="0.5"/>
<path d="M747.607 574.281L659.875 606.186V472.815L747.607 440.911V574.281Z" fill="black" fill-opacity="0.5"/>
<path d="M835.342 574.281L747.609 606.186V472.815L835.342 440.911V574.281Z" fill="black" fill-opacity="0.5"/>
<path d="M923.068 574.281L835.336 606.186V472.815L923.068 440.911V574.281Z" fill="black" fill-opacity="0.5"/>
<path d="M1010.8 574.281L923.07 606.186V472.815L1010.8 440.911V574.281Z" fill="black" fill-opacity="0.5"/>
<path d="M1098.53 574.281L1010.8 606.186V472.815L1098.53 440.911V574.281Z" fill="black" fill-opacity="0.5"/>
<path d="M1186.27 574.281L1098.54 606.186V472.815L1186.27 440.911V574.281Z" fill="black" fill-opacity="0.5"/>
<path d="M1274 574.281L1186.27 606.186V472.815L1274 440.911V574.281Z" fill="black" fill-opacity="0.5"/>
<path d="M45.4278 739.557L-42.3047 771.461V638.091L45.4278 606.187V739.557Z" fill="black" fill-opacity="0.5"/>
<path d="M133.162 739.557L45.4297 771.461V638.091L133.162 606.187V739.557Z" fill="black" fill-opacity="0.5"/>
<path d="M220.897 739.557L133.164 771.461V638.091L220.897 606.187V739.557Z" fill="black" fill-opacity="0.5"/>
<path d="M308.631 739.557L220.898 771.461V638.091L308.631 606.187V739.557Z" fill="black" fill-opacity="0.5"/>
<path d="M396.365 739.557L308.633 771.461V638.091L396.365 606.187V739.557Z" fill="black" fill-opacity="0.5"/>
<path d="M484.092 739.557L396.359 771.461V638.091L484.092 606.187V739.557Z" fill="black" fill-opacity="0.5"/>
<path d="M571.834 739.557L484.102 771.461V638.091L571.834 606.187V739.557Z" fill="black" fill-opacity="0.5"/>
<path d="M659.873 739.557L572.141 771.461V638.091L659.873 606.187V739.557Z" fill="black" fill-opacity="0.5"/>
<path d="M747.607 739.557L659.875 771.461V638.091L747.607 606.187V739.557Z" fill="black" fill-opacity="0.5"/>
<path d="M835.342 739.557L747.609 771.461V638.091L835.342 606.187V739.557Z" fill="black" fill-opacity="0.5"/>
<path d="M923.068 739.557L835.336 771.461V638.091L923.068 606.187V739.557Z" fill="black" fill-opacity="0.5"/>
<path d="M1010.8 739.557L923.07 771.461V638.091L1010.8 606.187V739.557Z" fill="black" fill-opacity="0.5"/>
<path d="M1098.53 739.557L1010.8 771.461V638.091L1098.53 606.187V739.557Z" fill="black" fill-opacity="0.5"/>
<path d="M1186.27 739.557L1098.54 771.461V638.091L1186.27 606.187V739.557Z" fill="black" fill-opacity="0.5"/>
<path d="M1274 739.557L1186.27 771.461V638.091L1274 606.187V739.557Z" fill="black" fill-opacity="0.5"/>
</g>
</g>
</g>
<defs>
<linearGradient id="paint0_linear_6041_4106" x1="972.5" y1="358" x2="-18" y2="357.962" gradientUnits="userSpaceOnUse">
<stop/>
<stop offset="1" stop-color="#666666" stop-opacity="0"/>
</linearGradient>
<clipPath id="clip0_6041_4106">
<rect width="1290" height="826.923" fill="white" transform="translate(510 -55.4619)"/>
</clipPath>
<clipPath id="clip1_6041_4106">
<rect width="1404.03" height="826.923" fill="white" transform="translate(395.969 -55.4619)"/>
</clipPath>
<clipPath id="clip2_6041_4106">
<rect width="1290" height="826.923" fill="white" transform="translate(-16 -55.4619)"/>
</clipPath>
<clipPath id="clip3_6041_4106">
<rect width="1404.03" height="826.923" fill="white" transform="translate(-130.031 -55.4619)"/>
</clipPath>
</defs>
</svg>
