<svg xmlns="http://www.w3.org/2000/svg" width="36" height="36" fill="none"><rect width="36" height="36" fill="#7c59f2" rx="18"/><path fill="#fff" d="M28.394 12.57v-.027c-.242-.978-.872-1.989-1.698-2.84-.966-.998-2.195-1.781-3.37-2.035h-.024a28.2 28.2 0 0 0-10.6 0h-.024c-2.18.473-4.547 2.751-5.075 4.875v.026a20.8 20.8 0 0 0 0 8.937v.024c.377 1.514 1.686 3.105 3.196 4.067.492.32 1.03.57 1.593.738v2.369a.953.953 0 0 0 1.636.66l2.402-2.495q.782.044 1.562.045c1.779 0 3.553-.17 5.3-.503h.025c2.174-.475 4.543-2.754 5.066-4.877v-.024c.653-2.944.656-5.995.01-8.94m-1.9 8.498c-.353 1.385-2.148 3.11-3.578 3.426a26.3 26.3 0 0 1-5.637.46.12.12 0 0 0-.099.041l-1.753 1.8-1.865 1.913a.217.217 0 0 1-.374-.15v-3.927a.135.135 0 0 0-.11-.133 3.5 3.5 0 0 1-.856-.327c-1.215-.648-2.44-1.978-2.722-3.103a18.8 18.8 0 0 1 0-8.078c.35-1.378 2.156-3.098 3.575-3.417 3.25-.622 6.59-.622 9.84 0 .788.175 1.688.775 2.392 1.511.579.6 1.023 1.29 1.186 1.913a18.8 18.8 0 0 1 0 8.071"/><path fill="#fff" d="M22.97 21.272a3.03 3.03 0 0 1-1.301 1.432q-.273.115-.563.178c-.218-.066-.427-.11-.613-.19a15.5 15.5 0 0 1-4.275-2.514 11 11 0 0 1-1.07-1.05 13.9 13.9 0 0 1-2.045-3.121c-.262-.534-.483-1.086-.708-1.636-.205-.502.098-1.023.409-1.397a3.3 3.3 0 0 1 1.098-.819.71.71 0 0 1 .882.205c.522.587.983 1.227 1.374 1.908a.91.91 0 0 1-.255 1.228 3 3 0 0 0-.293.233.9.9 0 0 0-.22.233.64.64 0 0 0-.05.567c.395 1.086.994 1.992 1.89 2.628q.456.322.974.534c.224.122.477.184.732.18.446-.053.593-.546.904-.8a.86.86 0 0 1 1.023-.047c.331.205.65.436.97.66q.473.324.91.696a.72.72 0 0 1 .227.892M18.582 11.47h-.262c.084-.004.172 0 .262 0"/><path fill="#fff" d="M23.112 17.6c-.204 0-.305-.173-.319-.363-.027-.375-.047-.75-.098-1.123a4.705 4.705 0 0 0-3.792-3.933c-.295-.054-.596-.066-.892-.097-.188-.02-.436-.032-.477-.266a.32.32 0 0 1 .317-.364q.074-.005.148 0a5.44 5.44 0 0 1 4.5 2.455c.387.602.65 1.276.773 1.982.077.442.106.896.14 1.346a.314.314 0 0 1-.3.364"/><path fill="#fff" d="M22.002 16.645a.8.8 0 0 1-.024.18.3.3 0 0 1-.565.031.9.9 0 0 1-.03-.254 3.3 3.3 0 0 0-.266-1.331 2.978 2.978 0 0 0-1.387-1.442 3.7 3.7 0 0 0-.994-.307c-.152-.024-.303-.039-.454-.06a.29.29 0 0 1-.272-.32.28.28 0 0 1 .198-.271.3.3 0 0 1 .119-.012c.6.024 1.189.177 1.724.45a3.48 3.48 0 0 1 1.524 1.506c.19.38.317.787.376 1.207q.017.082.025.165c.01.123.014.246.024.397z"/><path fill="#fff" d="M20.605 16.363a.27.27 0 0 1-.217.204h-.045a.31.31 0 0 1-.31-.204.4.4 0 0 1-.025-.105 3 3 0 0 0-.061-.409 1.2 1.2 0 0 0-.438-.685 1.2 1.2 0 0 0-.354-.172c-.162-.047-.332-.035-.491-.073a.303.303 0 0 1-.245-.35.32.32 0 0 1 .333-.254c.937.068 1.636.518 1.816 1.522q.028.14.04.282.016.122-.003.244"/></svg>